<mxfile host="65bd71144e">
    <diagram name="Page-1" id="Ekql5fOAXxoMZHHE_pls">
        <mxGraphModel dx="218" dy="1302" grid="1" gridSize="10" guides="1" tooltips="1" connect="1" arrows="1" fold="1" page="1" pageScale="1" pageWidth="827" pageHeight="1169" math="0" shadow="0">
            <root>
                <mxCell id="0"/>
                <mxCell id="1" parent="0"/>
                <mxCell id="46" style="edgeStyle=orthogonalEdgeStyle;rounded=0;orthogonalLoop=1;jettySize=auto;html=1;exitX=0.5;exitY=1;exitDx=0;exitDy=0;entryX=0.5;entryY=0;entryDx=0;entryDy=0;endArrow=none;endFill=0;startSize=14;endSize=14;sourcePerimeterSpacing=8;targetPerimeterSpacing=8;" edge="1" parent="1" source="QhEV-e-kiflhuz-4DfNM-1" target="QhEV-e-kiflhuz-4DfNM-44">
                    <mxGeometry relative="1" as="geometry"/>
                </mxCell>
                <mxCell id="47" style="edgeStyle=orthogonalEdgeStyle;rounded=0;orthogonalLoop=1;jettySize=auto;html=1;exitX=0.5;exitY=1;exitDx=0;exitDy=0;entryX=0.5;entryY=0;entryDx=0;entryDy=0;endArrow=none;endFill=0;startSize=14;endSize=14;sourcePerimeterSpacing=8;targetPerimeterSpacing=8;" edge="1" parent="1" source="QhEV-e-kiflhuz-4DfNM-1" target="QhEV-e-kiflhuz-4DfNM-43">
                    <mxGeometry relative="1" as="geometry"/>
                </mxCell>
                <mxCell id="48" style="edgeStyle=orthogonalEdgeStyle;rounded=0;orthogonalLoop=1;jettySize=auto;html=1;exitX=0.5;exitY=1;exitDx=0;exitDy=0;entryX=0.5;entryY=0;entryDx=0;entryDy=0;endArrow=none;endFill=0;startSize=14;endSize=14;sourcePerimeterSpacing=8;targetPerimeterSpacing=8;" edge="1" parent="1" source="QhEV-e-kiflhuz-4DfNM-1" target="QhEV-e-kiflhuz-4DfNM-45">
                    <mxGeometry relative="1" as="geometry"/>
                </mxCell>
                <mxCell id="49" style="edgeStyle=orthogonalEdgeStyle;rounded=0;orthogonalLoop=1;jettySize=auto;html=1;exitX=0.5;exitY=1;exitDx=0;exitDy=0;entryX=0.5;entryY=0;entryDx=0;entryDy=0;endArrow=none;endFill=0;startSize=14;endSize=14;sourcePerimeterSpacing=8;targetPerimeterSpacing=8;" edge="1" parent="1" source="QhEV-e-kiflhuz-4DfNM-1" target="QhEV-e-kiflhuz-4DfNM-46">
                    <mxGeometry relative="1" as="geometry"/>
                </mxCell>
                <mxCell id="QhEV-e-kiflhuz-4DfNM-1" value="ApexCare Solutions" style="rounded=0;whiteSpace=wrap;html=1;fillColor=#d5e8d4;strokeColor=#82b366;" parent="1" vertex="1">
                    <mxGeometry x="1495.11" y="-1130" width="310.43" height="70" as="geometry"/>
                </mxCell>
                <mxCell id="14" style="edgeStyle=orthogonalEdgeStyle;rounded=0;orthogonalLoop=1;jettySize=auto;html=1;exitX=0.5;exitY=1;exitDx=0;exitDy=0;entryX=0.5;entryY=0;entryDx=0;entryDy=0;endArrow=none;startSize=14;endSize=14;sourcePerimeterSpacing=8;targetPerimeterSpacing=8;endFill=0;" edge="1" parent="1" source="QhEV-e-kiflhuz-4DfNM-43" target="8">
                    <mxGeometry relative="1" as="geometry"/>
                </mxCell>
                <mxCell id="15" style="edgeStyle=orthogonalEdgeStyle;rounded=0;orthogonalLoop=1;jettySize=auto;html=1;exitX=0.5;exitY=1;exitDx=0;exitDy=0;entryX=0.5;entryY=0;entryDx=0;entryDy=0;endArrow=none;endFill=0;startSize=14;endSize=14;sourcePerimeterSpacing=8;targetPerimeterSpacing=8;" edge="1" parent="1" source="QhEV-e-kiflhuz-4DfNM-43" target="9">
                    <mxGeometry relative="1" as="geometry"/>
                </mxCell>
                <mxCell id="QhEV-e-kiflhuz-4DfNM-43" value="Planning" style="rounded=0;whiteSpace=wrap;html=1;fillColor=#f8cecc;strokeColor=#b85450;" parent="1" vertex="1">
                    <mxGeometry x="350" y="-940" width="120" height="60" as="geometry"/>
                </mxCell>
                <mxCell id="25" style="edgeStyle=orthogonalEdgeStyle;rounded=0;orthogonalLoop=1;jettySize=auto;html=1;exitX=0.5;exitY=1;exitDx=0;exitDy=0;entryX=0.5;entryY=0;entryDx=0;entryDy=0;endArrow=none;endFill=0;startSize=14;endSize=14;sourcePerimeterSpacing=8;targetPerimeterSpacing=8;" edge="1" parent="1" source="QhEV-e-kiflhuz-4DfNM-44" target="QhEV-e-kiflhuz-4DfNM-102">
                    <mxGeometry relative="1" as="geometry"/>
                </mxCell>
                <mxCell id="26" style="edgeStyle=orthogonalEdgeStyle;rounded=0;orthogonalLoop=1;jettySize=auto;html=1;exitX=0.5;exitY=1;exitDx=0;exitDy=0;entryX=0.5;entryY=0;entryDx=0;entryDy=0;endArrow=none;endFill=0;startSize=14;endSize=14;sourcePerimeterSpacing=8;targetPerimeterSpacing=8;" edge="1" parent="1" source="QhEV-e-kiflhuz-4DfNM-44" target="QhEV-e-kiflhuz-4DfNM-103">
                    <mxGeometry relative="1" as="geometry"/>
                </mxCell>
                <mxCell id="QhEV-e-kiflhuz-4DfNM-44" value="Design" style="rounded=0;whiteSpace=wrap;html=1;fillColor=#f8cecc;strokeColor=#b85450;" parent="1" vertex="1">
                    <mxGeometry x="930" y="-940" width="120" height="60" as="geometry"/>
                </mxCell>
                <mxCell id="41" style="edgeStyle=orthogonalEdgeStyle;rounded=0;orthogonalLoop=1;jettySize=auto;html=1;exitX=0.5;exitY=1;exitDx=0;exitDy=0;entryX=0.5;entryY=0;entryDx=0;entryDy=0;endArrow=none;endFill=0;startSize=14;endSize=14;sourcePerimeterSpacing=8;targetPerimeterSpacing=8;" edge="1" parent="1" source="QhEV-e-kiflhuz-4DfNM-45" target="QhEV-e-kiflhuz-4DfNM-2">
                    <mxGeometry relative="1" as="geometry">
                        <Array as="points">
                            <mxPoint x="2030" y="-820"/>
                            <mxPoint x="1443" y="-820"/>
                        </Array>
                    </mxGeometry>
                </mxCell>
                <mxCell id="42" style="edgeStyle=orthogonalEdgeStyle;rounded=0;orthogonalLoop=1;jettySize=auto;html=1;exitX=0.5;exitY=1;exitDx=0;exitDy=0;entryX=0.5;entryY=0;entryDx=0;entryDy=0;endArrow=none;endFill=0;startSize=14;endSize=14;sourcePerimeterSpacing=8;targetPerimeterSpacing=8;" edge="1" parent="1" source="QhEV-e-kiflhuz-4DfNM-45" target="QhEV-e-kiflhuz-4DfNM-4">
                    <mxGeometry relative="1" as="geometry"/>
                </mxCell>
                <mxCell id="43" style="edgeStyle=orthogonalEdgeStyle;rounded=0;orthogonalLoop=1;jettySize=auto;html=1;exitX=0.5;exitY=1;exitDx=0;exitDy=0;entryX=0.5;entryY=0;entryDx=0;entryDy=0;endArrow=none;endFill=0;startSize=14;endSize=14;sourcePerimeterSpacing=8;targetPerimeterSpacing=8;" edge="1" parent="1" source="QhEV-e-kiflhuz-4DfNM-45" target="QhEV-e-kiflhuz-4DfNM-5">
                    <mxGeometry relative="1" as="geometry">
                        <Array as="points">
                            <mxPoint x="2030" y="-820"/>
                            <mxPoint x="2320" y="-820"/>
                        </Array>
                    </mxGeometry>
                </mxCell>
                <mxCell id="44" style="edgeStyle=orthogonalEdgeStyle;rounded=0;orthogonalLoop=1;jettySize=auto;html=1;exitX=0.5;exitY=1;exitDx=0;exitDy=0;entryX=0.5;entryY=0;entryDx=0;entryDy=0;endArrow=none;endFill=0;startSize=14;endSize=14;sourcePerimeterSpacing=8;targetPerimeterSpacing=8;" edge="1" parent="1" source="QhEV-e-kiflhuz-4DfNM-45" target="QhEV-e-kiflhuz-4DfNM-120">
                    <mxGeometry relative="1" as="geometry">
                        <Array as="points">
                            <mxPoint x="2030" y="-820"/>
                            <mxPoint x="2621" y="-820"/>
                        </Array>
                    </mxGeometry>
                </mxCell>
                <mxCell id="QhEV-e-kiflhuz-4DfNM-45" value="Development" style="rounded=0;whiteSpace=wrap;html=1;fillColor=#f8cecc;strokeColor=#b85450;" parent="1" vertex="1">
                    <mxGeometry x="1970" y="-940" width="120" height="60" as="geometry"/>
                </mxCell>
                <mxCell id="QhEV-e-kiflhuz-4DfNM-46" value="Deployment" style="rounded=0;whiteSpace=wrap;html=1;fillColor=#f8cecc;strokeColor=#b85450;" parent="1" vertex="1">
                    <mxGeometry x="3000" y="-940" width="120" height="60" as="geometry"/>
                </mxCell>
                <mxCell id="35" style="edgeStyle=orthogonalEdgeStyle;rounded=0;orthogonalLoop=1;jettySize=auto;html=1;exitX=0.5;exitY=1;exitDx=0;exitDy=0;entryX=0.5;entryY=0;entryDx=0;entryDy=0;endArrow=none;endFill=0;startSize=14;endSize=14;sourcePerimeterSpacing=8;targetPerimeterSpacing=8;" edge="1" parent="1" source="QhEV-e-kiflhuz-4DfNM-102" target="29">
                    <mxGeometry relative="1" as="geometry"/>
                </mxCell>
                <mxCell id="36" style="edgeStyle=orthogonalEdgeStyle;rounded=0;orthogonalLoop=1;jettySize=auto;html=1;exitX=0.5;exitY=1;exitDx=0;exitDy=0;entryX=0.5;entryY=0;entryDx=0;entryDy=0;endArrow=none;endFill=0;startSize=14;endSize=14;sourcePerimeterSpacing=8;targetPerimeterSpacing=8;" edge="1" parent="1" source="QhEV-e-kiflhuz-4DfNM-102" target="30">
                    <mxGeometry relative="1" as="geometry"/>
                </mxCell>
                <mxCell id="QhEV-e-kiflhuz-4DfNM-102" value="UI Layout" style="rounded=0;whiteSpace=wrap;html=1;fillColor=#dae8fc;strokeColor=#6c8ebf;" parent="1" vertex="1">
                    <mxGeometry x="1080" y="-740.01" width="80" height="80" as="geometry"/>
                </mxCell>
                <mxCell id="37" style="edgeStyle=orthogonalEdgeStyle;rounded=0;orthogonalLoop=1;jettySize=auto;html=1;exitX=0.5;exitY=1;exitDx=0;exitDy=0;entryX=0.5;entryY=0;entryDx=0;entryDy=0;endArrow=none;endFill=0;startSize=14;endSize=14;sourcePerimeterSpacing=8;targetPerimeterSpacing=8;" edge="1" parent="1" source="QhEV-e-kiflhuz-4DfNM-103" target="28">
                    <mxGeometry relative="1" as="geometry"/>
                </mxCell>
                <mxCell id="38" style="edgeStyle=orthogonalEdgeStyle;rounded=0;orthogonalLoop=1;jettySize=auto;html=1;exitX=0.5;exitY=1;exitDx=0;exitDy=0;entryX=0.5;entryY=0;entryDx=0;entryDy=0;endArrow=none;endFill=0;startSize=14;endSize=14;sourcePerimeterSpacing=8;targetPerimeterSpacing=8;" edge="1" parent="1" source="QhEV-e-kiflhuz-4DfNM-103" target="27">
                    <mxGeometry relative="1" as="geometry"/>
                </mxCell>
                <mxCell id="QhEV-e-kiflhuz-4DfNM-103" value="Application Theme" style="rounded=0;whiteSpace=wrap;html=1;fillColor=#dae8fc;strokeColor=#6c8ebf;" parent="1" vertex="1">
                    <mxGeometry x="840" y="-740" width="80" height="80" as="geometry"/>
                </mxCell>
                <mxCell id="QhEV-e-kiflhuz-4DfNM-2" value="Service Desk" style="rounded=0;whiteSpace=wrap;html=1;fillColor=#dae8fc;strokeColor=#6c8ebf;" parent="1" vertex="1">
                    <mxGeometry x="1403.3600000000001" y="-739.26" width="80" height="80" as="geometry"/>
                </mxCell>
                <mxCell id="45" style="edgeStyle=orthogonalEdgeStyle;rounded=0;orthogonalLoop=1;jettySize=auto;html=1;exitX=0.5;exitY=0;exitDx=0;exitDy=0;entryX=0.5;entryY=1;entryDx=0;entryDy=0;endArrow=none;endFill=0;startSize=14;endSize=14;sourcePerimeterSpacing=8;targetPerimeterSpacing=8;" edge="1" parent="1" source="QhEV-e-kiflhuz-4DfNM-3" target="QhEV-e-kiflhuz-4DfNM-45">
                    <mxGeometry relative="1" as="geometry">
                        <Array as="points">
                            <mxPoint x="1744" y="-820"/>
                            <mxPoint x="2030" y="-820"/>
                        </Array>
                    </mxGeometry>
                </mxCell>
                <mxCell id="QhEV-e-kiflhuz-4DfNM-3" value="Client Management System" style="rounded=0;whiteSpace=wrap;html=1;fillColor=#dae8fc;strokeColor=#6c8ebf;" parent="1" vertex="1">
                    <mxGeometry x="1704.54" y="-737.76" width="80" height="80" as="geometry"/>
                </mxCell>
                <mxCell id="QhEV-e-kiflhuz-4DfNM-4" value="Contract Mangement System" style="rounded=0;whiteSpace=wrap;html=1;fillColor=#dae8fc;strokeColor=#6c8ebf;" parent="1" vertex="1">
                    <mxGeometry x="1990" y="-740" width="80" height="80" as="geometry"/>
                </mxCell>
                <mxCell id="QhEV-e-kiflhuz-4DfNM-5" value="Field Service Management System" style="rounded=0;whiteSpace=wrap;html=1;fillColor=#dae8fc;strokeColor=#6c8ebf;" parent="1" vertex="1">
                    <mxGeometry x="2280" y="-740" width="80" height="80" as="geometry"/>
                </mxCell>
                <mxCell id="QhEV-e-kiflhuz-4DfNM-196" style="edgeStyle=orthogonalEdgeStyle;rounded=0;orthogonalLoop=1;jettySize=auto;html=1;exitX=0.5;exitY=0;exitDx=0;exitDy=0;endArrow=none;endFill=0;" parent="1" source="QhEV-e-kiflhuz-4DfNM-24" edge="1">
                    <mxGeometry relative="1" as="geometry">
                        <mxPoint x="1343.074285714286" y="-629.26" as="targetPoint"/>
                    </mxGeometry>
                </mxCell>
                <mxCell id="QhEV-e-kiflhuz-4DfNM-24" value="&lt;font style=&quot;font-size: 10px;&quot;&gt;Omnichannel Communication&lt;/font&gt;" style="rounded=0;whiteSpace=wrap;html=1;fillColor=#ffe6cc;strokeColor=#d79b00;spacingTop=0;" parent="1" vertex="1">
                    <mxGeometry x="1302.99" y="-599.25" width="80" height="41.48" as="geometry"/>
                </mxCell>
                <mxCell id="QhEV-e-kiflhuz-4DfNM-194" style="edgeStyle=orthogonalEdgeStyle;rounded=0;orthogonalLoop=1;jettySize=auto;html=1;exitX=0.5;exitY=0;exitDx=0;exitDy=0;endArrow=none;endFill=0;" parent="1" source="QhEV-e-kiflhuz-4DfNM-25" edge="1">
                    <mxGeometry relative="1" as="geometry">
                        <mxPoint x="1443.6457142857143" y="-629.26" as="targetPoint"/>
                    </mxGeometry>
                </mxCell>
                <mxCell id="QhEV-e-kiflhuz-4DfNM-25" value="&lt;font style=&quot;font-size: 10px;&quot;&gt;AI-Powered Call Handling&lt;/font&gt;" style="rounded=0;whiteSpace=wrap;html=1;fillColor=#ffe6cc;strokeColor=#d79b00;" parent="1" vertex="1">
                    <mxGeometry x="1402.9873054079399" y="-599.2433333333333" width="81.15035948733978" height="41.48148148148148" as="geometry"/>
                </mxCell>
                <mxCell id="QhEV-e-kiflhuz-4DfNM-195" style="edgeStyle=orthogonalEdgeStyle;rounded=0;orthogonalLoop=1;jettySize=auto;html=1;exitX=0.5;exitY=0;exitDx=0;exitDy=0;endArrow=none;endFill=0;" parent="1" source="QhEV-e-kiflhuz-4DfNM-26" edge="1">
                    <mxGeometry relative="1" as="geometry">
                        <mxPoint x="1543.074285714286" y="-629.26" as="targetPoint"/>
                    </mxGeometry>
                </mxCell>
                <mxCell id="QhEV-e-kiflhuz-4DfNM-26" value="&lt;font style=&quot;font-size: 10px;&quot;&gt;Cross Platform Intergation&lt;/font&gt;" style="rounded=0;whiteSpace=wrap;html=1;fillColor=#ffe6cc;strokeColor=#d79b00;" parent="1" vertex="1">
                    <mxGeometry x="1502.58730540794" y="-599.2414814814815" width="81.15035948733978" height="41.48148148148148" as="geometry"/>
                </mxCell>
                <mxCell id="QhEV-e-kiflhuz-4DfNM-216" style="edgeStyle=orthogonalEdgeStyle;rounded=0;orthogonalLoop=1;jettySize=auto;html=1;exitX=0;exitY=0.5;exitDx=0;exitDy=0;endArrow=none;endFill=0;" parent="1" source="QhEV-e-kiflhuz-4DfNM-105" edge="1">
                    <mxGeometry relative="1" as="geometry">
                        <mxPoint x="1303.3600000000001" y="-519.26" as="targetPoint"/>
                    </mxGeometry>
                </mxCell>
                <mxCell id="QhEV-e-kiflhuz-4DfNM-105" value="&lt;font style=&quot;font-size: 8px;&quot;&gt;Phone&amp;nbsp;&lt;/font&gt;" style="rounded=0;whiteSpace=wrap;html=1;fillColor=#e1d5e7;strokeColor=#9673a6;" parent="1" vertex="1">
                    <mxGeometry x="1322.99" y="-539.25" width="60" height="40" as="geometry"/>
                </mxCell>
                <mxCell id="QhEV-e-kiflhuz-4DfNM-217" style="edgeStyle=orthogonalEdgeStyle;rounded=0;orthogonalLoop=1;jettySize=auto;html=1;exitX=0;exitY=0.5;exitDx=0;exitDy=0;endArrow=none;endFill=0;" parent="1" source="QhEV-e-kiflhuz-4DfNM-106" edge="1">
                    <mxGeometry relative="1" as="geometry">
                        <mxPoint x="1303.3600000000001" y="-459.26" as="targetPoint"/>
                    </mxGeometry>
                </mxCell>
                <mxCell id="QhEV-e-kiflhuz-4DfNM-106" value="&lt;font style=&quot;font-size: 8px;&quot;&gt;Email&lt;/font&gt;" style="rounded=0;whiteSpace=wrap;html=1;fillColor=#e1d5e7;strokeColor=#9673a6;" parent="1" vertex="1">
                    <mxGeometry x="1322.99" y="-479.25" width="60" height="40" as="geometry"/>
                </mxCell>
                <mxCell id="QhEV-e-kiflhuz-4DfNM-218" style="edgeStyle=orthogonalEdgeStyle;rounded=0;orthogonalLoop=1;jettySize=auto;html=1;exitX=0;exitY=0.5;exitDx=0;exitDy=0;endArrow=none;endFill=0;" parent="1" source="QhEV-e-kiflhuz-4DfNM-107" edge="1">
                    <mxGeometry relative="1" as="geometry">
                        <mxPoint x="1303.3600000000001" y="-399.26" as="targetPoint"/>
                    </mxGeometry>
                </mxCell>
                <mxCell id="QhEV-e-kiflhuz-4DfNM-107" value="&lt;font style=&quot;font-size: 8px;&quot;&gt;Chat&lt;/font&gt;" style="rounded=0;whiteSpace=wrap;html=1;fillColor=#e1d5e7;strokeColor=#9673a6;" parent="1" vertex="1">
                    <mxGeometry x="1322.99" y="-419.25" width="60" height="40" as="geometry"/>
                </mxCell>
                <mxCell id="QhEV-e-kiflhuz-4DfNM-219" style="edgeStyle=orthogonalEdgeStyle;rounded=0;orthogonalLoop=1;jettySize=auto;html=1;exitX=0;exitY=0.5;exitDx=0;exitDy=0;endArrow=none;endFill=0;" parent="1" source="QhEV-e-kiflhuz-4DfNM-108" edge="1">
                    <mxGeometry relative="1" as="geometry">
                        <mxPoint x="1303.3600000000001" y="-339.26" as="targetPoint"/>
                    </mxGeometry>
                </mxCell>
                <mxCell id="QhEV-e-kiflhuz-4DfNM-108" value="&lt;font style=&quot;font-size: 8px;&quot;&gt;Mobile app&lt;/font&gt;" style="rounded=0;whiteSpace=wrap;html=1;fillColor=#e1d5e7;strokeColor=#9673a6;" parent="1" vertex="1">
                    <mxGeometry x="1322.99" y="-359.25" width="60" height="40" as="geometry"/>
                </mxCell>
                <mxCell id="QhEV-e-kiflhuz-4DfNM-120" value="Customer Satisfaction Management" style="rounded=0;whiteSpace=wrap;html=1;fillColor=#dae8fc;strokeColor=#6c8ebf;" parent="1" vertex="1">
                    <mxGeometry x="2581.15" y="-740.01" width="80" height="80" as="geometry"/>
                </mxCell>
                <mxCell id="QhEV-e-kiflhuz-4DfNM-199" style="edgeStyle=orthogonalEdgeStyle;rounded=0;orthogonalLoop=1;jettySize=auto;html=1;exitX=0.5;exitY=0;exitDx=0;exitDy=0;endArrow=none;endFill=0;" parent="1" source="QhEV-e-kiflhuz-4DfNM-122" edge="1">
                    <mxGeometry relative="1" as="geometry">
                        <mxPoint x="1663.6828571428573" y="-637.76" as="targetPoint"/>
                    </mxGeometry>
                </mxCell>
                <mxCell id="QhEV-e-kiflhuz-4DfNM-229" style="edgeStyle=orthogonalEdgeStyle;rounded=0;orthogonalLoop=1;jettySize=auto;html=1;exitX=0;exitY=1;exitDx=0;exitDy=0;endArrow=none;endFill=0;" parent="1" source="QhEV-e-kiflhuz-4DfNM-122" edge="1">
                    <mxGeometry relative="1" as="geometry">
                        <mxPoint x="1623.54" y="-457.76" as="targetPoint"/>
                    </mxGeometry>
                </mxCell>
                <mxCell id="QhEV-e-kiflhuz-4DfNM-122" value="&lt;font style=&quot;font-size: 10px;&quot;&gt;CRM Integration&lt;/font&gt;" style="rounded=0;whiteSpace=wrap;html=1;fillColor=#ffe6cc;strokeColor=#d79b00;" parent="1" vertex="1">
                    <mxGeometry x="1623.38730540794" y="-597.7514814814815" width="81.15035948733978" height="41.48148148148148" as="geometry"/>
                </mxCell>
                <mxCell id="QhEV-e-kiflhuz-4DfNM-200" style="edgeStyle=orthogonalEdgeStyle;rounded=0;orthogonalLoop=1;jettySize=auto;html=1;endArrow=none;endFill=0;" parent="1" source="QhEV-e-kiflhuz-4DfNM-123" edge="1">
                    <mxGeometry relative="1" as="geometry">
                        <mxPoint x="1824.2542857142857" y="-637.76" as="targetPoint"/>
                    </mxGeometry>
                </mxCell>
                <mxCell id="QhEV-e-kiflhuz-4DfNM-235" style="edgeStyle=orthogonalEdgeStyle;rounded=0;orthogonalLoop=1;jettySize=auto;html=1;exitX=0;exitY=1;exitDx=0;exitDy=0;endArrow=none;endFill=0;" parent="1" source="QhEV-e-kiflhuz-4DfNM-123" edge="1">
                    <mxGeometry relative="1" as="geometry">
                        <mxPoint x="1783.5876190476188" y="-517.76" as="targetPoint"/>
                    </mxGeometry>
                </mxCell>
                <mxCell id="QhEV-e-kiflhuz-4DfNM-123" value="&lt;font style=&quot;font-size: 10px;&quot;&gt;Real Time Updates&lt;/font&gt;" style="rounded=0;whiteSpace=wrap;html=1;fillColor=#ffe6cc;strokeColor=#d79b00;" parent="1" vertex="1">
                    <mxGeometry x="1783.53730540794" y="-597.7514814814815" width="81.15035948733978" height="41.48148148148148" as="geometry"/>
                </mxCell>
                <mxCell id="QhEV-e-kiflhuz-4DfNM-222" style="edgeStyle=orthogonalEdgeStyle;rounded=0;orthogonalLoop=1;jettySize=auto;html=1;exitX=0;exitY=0.5;exitDx=0;exitDy=0;endArrow=none;endFill=0;" parent="1" source="QhEV-e-kiflhuz-4DfNM-125" edge="1">
                    <mxGeometry relative="1" as="geometry">
                        <mxPoint x="1403.3600000000001" y="-519.1766666666665" as="targetPoint"/>
                    </mxGeometry>
                </mxCell>
                <mxCell id="QhEV-e-kiflhuz-4DfNM-125" value="&lt;font style=&quot;font-size: 8px;&quot;&gt;AI Tools&lt;/font&gt;" style="rounded=0;whiteSpace=wrap;html=1;fillColor=#e1d5e7;strokeColor=#9673a6;" parent="1" vertex="1">
                    <mxGeometry x="1424.1399999999999" y="-539.25" width="58.85" height="40" as="geometry"/>
                </mxCell>
                <mxCell id="QhEV-e-kiflhuz-4DfNM-223" style="edgeStyle=orthogonalEdgeStyle;rounded=0;orthogonalLoop=1;jettySize=auto;html=1;exitX=0;exitY=0.5;exitDx=0;exitDy=0;endArrow=none;endFill=0;" parent="1" source="QhEV-e-kiflhuz-4DfNM-126" edge="1">
                    <mxGeometry relative="1" as="geometry">
                        <mxPoint x="1403.3600000000001" y="-459.1766666666665" as="targetPoint"/>
                    </mxGeometry>
                </mxCell>
                <mxCell id="QhEV-e-kiflhuz-4DfNM-126" value="&lt;font style=&quot;font-size: 8px;&quot;&gt;Rapid response&lt;/font&gt;" style="rounded=0;whiteSpace=wrap;html=1;fillColor=#e1d5e7;strokeColor=#9673a6;" parent="1" vertex="1">
                    <mxGeometry x="1422.99" y="-479.25" width="60" height="40" as="geometry"/>
                </mxCell>
                <mxCell id="QhEV-e-kiflhuz-4DfNM-226" style="edgeStyle=orthogonalEdgeStyle;rounded=0;orthogonalLoop=1;jettySize=auto;html=1;exitX=0;exitY=0.5;exitDx=0;exitDy=0;endArrow=none;endFill=0;" parent="1" source="QhEV-e-kiflhuz-4DfNM-127" edge="1">
                    <mxGeometry relative="1" as="geometry">
                        <mxPoint x="1503.3600000000001" y="-519.5457142857142" as="targetPoint"/>
                    </mxGeometry>
                </mxCell>
                <mxCell id="QhEV-e-kiflhuz-4DfNM-127" value="&lt;font style=&quot;font-size: 8px;&quot;&gt;External database connection&lt;/font&gt;" style="rounded=0;whiteSpace=wrap;html=1;spacingBottom=2;fillColor=#e1d5e7;strokeColor=#9673a6;" parent="1" vertex="1">
                    <mxGeometry x="1523.74" y="-539.25" width="59.25" height="40" as="geometry"/>
                </mxCell>
                <mxCell id="QhEV-e-kiflhuz-4DfNM-228" style="edgeStyle=orthogonalEdgeStyle;rounded=0;orthogonalLoop=1;jettySize=auto;html=1;exitX=0;exitY=0.5;exitDx=0;exitDy=0;endArrow=none;endFill=0;" parent="1" source="QhEV-e-kiflhuz-4DfNM-128" edge="1">
                    <mxGeometry relative="1" as="geometry">
                        <mxPoint x="1503.3600000000001" y="-459.39559322033915" as="targetPoint"/>
                    </mxGeometry>
                </mxCell>
                <mxCell id="QhEV-e-kiflhuz-4DfNM-128" value="&lt;font style=&quot;font-size: 8px;&quot;&gt;Call recording&lt;/font&gt;" style="rounded=0;whiteSpace=wrap;html=1;fillColor=#e1d5e7;strokeColor=#9673a6;" parent="1" vertex="1">
                    <mxGeometry x="1523.74" y="-479.25" width="59.25" height="40" as="geometry"/>
                </mxCell>
                <mxCell id="QhEV-e-kiflhuz-4DfNM-233" style="edgeStyle=orthogonalEdgeStyle;rounded=0;orthogonalLoop=1;jettySize=auto;html=1;exitX=0;exitY=0.5;exitDx=0;exitDy=0;endArrow=none;endFill=0;" parent="1" source="QhEV-e-kiflhuz-4DfNM-142" edge="1">
                    <mxGeometry relative="1" as="geometry">
                        <mxPoint x="1624.54" y="-517.6171428571429" as="targetPoint"/>
                    </mxGeometry>
                </mxCell>
                <mxCell id="QhEV-e-kiflhuz-4DfNM-142" value="&lt;font style=&quot;font-size: 8px;&quot;&gt;Link external CRM systems&lt;/font&gt;" style="rounded=0;whiteSpace=wrap;html=1;fillColor=#e1d5e7;strokeColor=#9673a6;" parent="1" vertex="1">
                    <mxGeometry x="1645.29" y="-537.76" width="59.25" height="40" as="geometry"/>
                </mxCell>
                <mxCell id="QhEV-e-kiflhuz-4DfNM-232" style="edgeStyle=orthogonalEdgeStyle;rounded=0;orthogonalLoop=1;jettySize=auto;html=1;exitX=0;exitY=0.5;exitDx=0;exitDy=0;endArrow=none;endFill=0;" parent="1" source="QhEV-e-kiflhuz-4DfNM-143" edge="1">
                    <mxGeometry relative="1" as="geometry">
                        <mxPoint x="1624.54" y="-457.76" as="targetPoint"/>
                    </mxGeometry>
                </mxCell>
                <mxCell id="QhEV-e-kiflhuz-4DfNM-143" value="&lt;font style=&quot;font-size: 8px;&quot;&gt;Enriched client profiles&lt;/font&gt;" style="rounded=0;whiteSpace=wrap;html=1;fillColor=#e1d5e7;strokeColor=#9673a6;" parent="1" vertex="1">
                    <mxGeometry x="1645.29" y="-477.76" width="59.25" height="40" as="geometry"/>
                </mxCell>
                <mxCell id="QhEV-e-kiflhuz-4DfNM-236" style="edgeStyle=orthogonalEdgeStyle;rounded=0;orthogonalLoop=1;jettySize=auto;html=1;exitX=0;exitY=0.5;exitDx=0;exitDy=0;endArrow=none;endFill=0;" parent="1" source="QhEV-e-kiflhuz-4DfNM-144" edge="1">
                    <mxGeometry relative="1" as="geometry">
                        <mxPoint x="1784.54" y="-517.6171428571429" as="targetPoint"/>
                    </mxGeometry>
                </mxCell>
                <mxCell id="QhEV-e-kiflhuz-4DfNM-144" value="&lt;font style=&quot;font-size: 8px;&quot;&gt;Track and update client / contract&lt;/font&gt;" style="rounded=0;whiteSpace=wrap;html=1;fillColor=#e1d5e7;strokeColor=#9673a6;" parent="1" vertex="1">
                    <mxGeometry x="1805.54" y="-539.26" width="59.25" height="41.5" as="geometry"/>
                </mxCell>
                <mxCell id="QhEV-e-kiflhuz-4DfNM-204" style="edgeStyle=orthogonalEdgeStyle;rounded=0;orthogonalLoop=1;jettySize=auto;html=1;endArrow=none;endFill=0;" parent="1" source="QhEV-e-kiflhuz-4DfNM-145" edge="1">
                    <mxGeometry relative="1" as="geometry">
                        <mxPoint x="1949.4224851516096" y="-640" as="targetPoint"/>
                    </mxGeometry>
                </mxCell>
                <mxCell id="QhEV-e-kiflhuz-4DfNM-237" style="edgeStyle=orthogonalEdgeStyle;rounded=0;orthogonalLoop=1;jettySize=auto;html=1;exitX=0;exitY=1;exitDx=0;exitDy=0;endArrow=none;endFill=0;" parent="1" source="QhEV-e-kiflhuz-4DfNM-145" edge="1">
                    <mxGeometry relative="1" as="geometry">
                        <mxPoint x="1908.8333333333335" y="-340" as="targetPoint"/>
                    </mxGeometry>
                </mxCell>
                <mxCell id="QhEV-e-kiflhuz-4DfNM-145" value="&lt;font style=&quot;font-size: 10px;&quot;&gt;Self Service Portal&lt;/font&gt;" style="rounded=0;whiteSpace=wrap;html=1;fillColor=#ffe6cc;strokeColor=#d79b00;" parent="1" vertex="1">
                    <mxGeometry x="1908.84730540794" y="-600.0014814814815" width="81.15035948733978" height="41.48148148148148" as="geometry"/>
                </mxCell>
                <mxCell id="QhEV-e-kiflhuz-4DfNM-242" style="edgeStyle=orthogonalEdgeStyle;rounded=0;orthogonalLoop=1;jettySize=auto;html=1;exitX=0;exitY=1;exitDx=0;exitDy=0;endArrow=none;endFill=0;" parent="1" source="QhEV-e-kiflhuz-4DfNM-146" edge="1">
                    <mxGeometry relative="1" as="geometry">
                        <mxPoint x="2069.666666666667" y="-520" as="targetPoint"/>
                    </mxGeometry>
                </mxCell>
                <mxCell id="4" style="edgeStyle=none;curved=1;rounded=0;orthogonalLoop=1;jettySize=auto;html=1;exitX=0.5;exitY=0;exitDx=0;exitDy=0;endArrow=none;endFill=0;startSize=14;endSize=14;sourcePerimeterSpacing=8;targetPerimeterSpacing=8;" parent="1" source="QhEV-e-kiflhuz-4DfNM-146" edge="1">
                    <mxGeometry relative="1" as="geometry">
                        <mxPoint x="2110.5830115830117" y="-640" as="targetPoint"/>
                    </mxGeometry>
                </mxCell>
                <mxCell id="QhEV-e-kiflhuz-4DfNM-146" value="&lt;font style=&quot;font-size: 10px;&quot;&gt;Automated Reporting&lt;/font&gt;" style="rounded=0;whiteSpace=wrap;html=1;fillColor=#ffe6cc;strokeColor=#d79b00;" parent="1" vertex="1">
                    <mxGeometry x="2069.99730540794" y="-600.0014814814815" width="81.15035948733978" height="41.48148148148148" as="geometry"/>
                </mxCell>
                <mxCell id="QhEV-e-kiflhuz-4DfNM-241" style="edgeStyle=orthogonalEdgeStyle;rounded=0;orthogonalLoop=1;jettySize=auto;html=1;exitX=0;exitY=0.5;exitDx=0;exitDy=0;endArrow=none;endFill=0;" parent="1" source="QhEV-e-kiflhuz-4DfNM-147" edge="1">
                    <mxGeometry relative="1" as="geometry">
                        <mxPoint x="1910" y="-520.1666666666665" as="targetPoint"/>
                    </mxGeometry>
                </mxCell>
                <mxCell id="QhEV-e-kiflhuz-4DfNM-147" value="&lt;font style=&quot;font-size: 8px;&quot;&gt;Contract details&lt;/font&gt;" style="rounded=0;whiteSpace=wrap;html=1;fillColor=#e1d5e7;strokeColor=#9673a6;" parent="1" vertex="1">
                    <mxGeometry x="1930.75" y="-540" width="59.25" height="40" as="geometry"/>
                </mxCell>
                <mxCell id="QhEV-e-kiflhuz-4DfNM-240" style="edgeStyle=orthogonalEdgeStyle;rounded=0;orthogonalLoop=1;jettySize=auto;html=1;exitX=0;exitY=0.5;exitDx=0;exitDy=0;endArrow=none;endFill=0;" parent="1" source="QhEV-e-kiflhuz-4DfNM-148" edge="1">
                    <mxGeometry relative="1" as="geometry">
                        <mxPoint x="1910" y="-460.1666666666665" as="targetPoint"/>
                    </mxGeometry>
                </mxCell>
                <mxCell id="QhEV-e-kiflhuz-4DfNM-148" value="&lt;font style=&quot;font-size: 8px;&quot;&gt;Usage stats&lt;/font&gt;" style="rounded=0;whiteSpace=wrap;html=1;fillColor=#e1d5e7;strokeColor=#9673a6;" parent="1" vertex="1">
                    <mxGeometry x="1930.75" y="-480" width="59.25" height="40" as="geometry"/>
                </mxCell>
                <mxCell id="QhEV-e-kiflhuz-4DfNM-239" style="edgeStyle=orthogonalEdgeStyle;rounded=0;orthogonalLoop=1;jettySize=auto;html=1;exitX=0;exitY=0.5;exitDx=0;exitDy=0;endArrow=none;endFill=0;" parent="1" source="QhEV-e-kiflhuz-4DfNM-149" edge="1">
                    <mxGeometry relative="1" as="geometry">
                        <mxPoint x="1910" y="-400.1666666666665" as="targetPoint"/>
                    </mxGeometry>
                </mxCell>
                <mxCell id="QhEV-e-kiflhuz-4DfNM-149" value="&lt;font style=&quot;font-size: 8px;&quot;&gt;Renew services&lt;/font&gt;" style="rounded=0;whiteSpace=wrap;html=1;fillColor=#e1d5e7;strokeColor=#9673a6;" parent="1" vertex="1">
                    <mxGeometry x="1930.75" y="-420" width="59.25" height="40" as="geometry"/>
                </mxCell>
                <mxCell id="QhEV-e-kiflhuz-4DfNM-238" style="edgeStyle=orthogonalEdgeStyle;rounded=0;orthogonalLoop=1;jettySize=auto;html=1;exitX=0;exitY=0.5;exitDx=0;exitDy=0;endArrow=none;endFill=0;" parent="1" source="QhEV-e-kiflhuz-4DfNM-150" edge="1">
                    <mxGeometry relative="1" as="geometry">
                        <mxPoint x="1910" y="-340.1666666666665" as="targetPoint"/>
                    </mxGeometry>
                </mxCell>
                <mxCell id="QhEV-e-kiflhuz-4DfNM-150" value="&lt;font style=&quot;font-size: 8px;&quot;&gt;Web portal&lt;/font&gt;" style="rounded=0;whiteSpace=wrap;html=1;fillColor=#e1d5e7;strokeColor=#9673a6;" parent="1" vertex="1">
                    <mxGeometry x="1930.75" y="-360" width="59.25" height="40" as="geometry"/>
                </mxCell>
                <mxCell id="QhEV-e-kiflhuz-4DfNM-243" style="edgeStyle=orthogonalEdgeStyle;rounded=0;orthogonalLoop=1;jettySize=auto;html=1;exitX=0;exitY=0.5;exitDx=0;exitDy=0;endArrow=none;endFill=0;" parent="1" source="QhEV-e-kiflhuz-4DfNM-151" edge="1">
                    <mxGeometry relative="1" as="geometry">
                        <mxPoint x="2070" y="-520.1666666666665" as="targetPoint"/>
                    </mxGeometry>
                </mxCell>
                <mxCell id="QhEV-e-kiflhuz-4DfNM-151" value="&lt;font style=&quot;font-size: 8px;&quot;&gt;Data driven insights&lt;/font&gt;" style="rounded=0;whiteSpace=wrap;html=1;fillColor=#e1d5e7;strokeColor=#9673a6;" parent="1" vertex="1">
                    <mxGeometry x="2091.9" y="-540" width="59.25" height="40" as="geometry"/>
                </mxCell>
                <mxCell id="QhEV-e-kiflhuz-4DfNM-209" style="edgeStyle=orthogonalEdgeStyle;rounded=0;orthogonalLoop=1;jettySize=auto;html=1;exitX=0.5;exitY=0;exitDx=0;exitDy=0;endArrow=none;endFill=0;" parent="1" source="QhEV-e-kiflhuz-4DfNM-175" edge="1">
                    <mxGeometry relative="1" as="geometry">
                        <mxPoint x="2220.551724137931" y="-640" as="targetPoint"/>
                    </mxGeometry>
                </mxCell>
                <mxCell id="QhEV-e-kiflhuz-4DfNM-244" style="edgeStyle=orthogonalEdgeStyle;rounded=0;orthogonalLoop=1;jettySize=auto;html=1;exitX=0;exitY=1;exitDx=0;exitDy=0;endArrow=none;endFill=0;" parent="1" source="QhEV-e-kiflhuz-4DfNM-175" edge="1">
                    <mxGeometry relative="1" as="geometry">
                        <mxPoint x="2180" y="-340" as="targetPoint"/>
                    </mxGeometry>
                </mxCell>
                <mxCell id="QhEV-e-kiflhuz-4DfNM-175" value="&lt;font style=&quot;font-size: 10px;&quot;&gt;AI-Driven Scheduling&lt;/font&gt;" style="rounded=0;whiteSpace=wrap;html=1;fillColor=#ffe6cc;strokeColor=#d79b00;" parent="1" vertex="1">
                    <mxGeometry x="2179.99730540794" y="-599.9914814814815" width="81.15035948733978" height="41.48148148148148" as="geometry"/>
                </mxCell>
                <mxCell id="QhEV-e-kiflhuz-4DfNM-207" style="edgeStyle=orthogonalEdgeStyle;rounded=0;orthogonalLoop=1;jettySize=auto;html=1;exitX=0.5;exitY=0;exitDx=0;exitDy=0;endArrow=none;endFill=0;" parent="1" source="QhEV-e-kiflhuz-4DfNM-176" edge="1">
                    <mxGeometry relative="1" as="geometry">
                        <mxPoint x="2320.551724137931" y="-640" as="targetPoint"/>
                    </mxGeometry>
                </mxCell>
                <mxCell id="QhEV-e-kiflhuz-4DfNM-250" style="edgeStyle=orthogonalEdgeStyle;rounded=0;orthogonalLoop=1;jettySize=auto;html=1;exitX=0;exitY=1;exitDx=0;exitDy=0;endArrow=none;endFill=0;" parent="1" source="QhEV-e-kiflhuz-4DfNM-176" edge="1">
                    <mxGeometry relative="1" as="geometry">
                        <mxPoint x="2279.862068965517" y="-450" as="targetPoint"/>
                    </mxGeometry>
                </mxCell>
                <mxCell id="QhEV-e-kiflhuz-4DfNM-176" value="&lt;font style=&quot;font-size: 10px;&quot;&gt;Mobile Access to technicians&lt;/font&gt;" style="rounded=0;whiteSpace=wrap;html=1;fillColor=#ffe6cc;strokeColor=#d79b00;" parent="1" vertex="1">
                    <mxGeometry x="2279.99730540794" y="-600.0014814814815" width="81.15035948733978" height="41.48148148148148" as="geometry"/>
                </mxCell>
                <mxCell id="QhEV-e-kiflhuz-4DfNM-208" style="edgeStyle=orthogonalEdgeStyle;rounded=0;orthogonalLoop=1;jettySize=auto;html=1;exitX=0.5;exitY=0;exitDx=0;exitDy=0;endArrow=none;endFill=0;" parent="1" source="QhEV-e-kiflhuz-4DfNM-177" edge="1">
                    <mxGeometry relative="1" as="geometry">
                        <mxPoint x="2420.551724137931" y="-640" as="targetPoint"/>
                    </mxGeometry>
                </mxCell>
                <mxCell id="QhEV-e-kiflhuz-4DfNM-253" style="edgeStyle=orthogonalEdgeStyle;rounded=0;orthogonalLoop=1;jettySize=auto;html=1;exitX=0;exitY=1;exitDx=0;exitDy=0;endArrow=none;endFill=0;" parent="1" source="QhEV-e-kiflhuz-4DfNM-177" edge="1">
                    <mxGeometry relative="1" as="geometry">
                        <mxPoint x="2379.862068965517" y="-460" as="targetPoint"/>
                    </mxGeometry>
                </mxCell>
                <mxCell id="QhEV-e-kiflhuz-4DfNM-177" value="&lt;font style=&quot;font-size: 10px;&quot;&gt;Predictive Maintenace Alerts&lt;/font&gt;" style="rounded=0;whiteSpace=wrap;html=1;fillColor=#ffe6cc;strokeColor=#d79b00;" parent="1" vertex="1">
                    <mxGeometry x="2379.99730540794" y="-600.0014814814815" width="81.15035948733978" height="41.48148148148148" as="geometry"/>
                </mxCell>
                <mxCell id="QhEV-e-kiflhuz-4DfNM-245" style="edgeStyle=orthogonalEdgeStyle;rounded=0;orthogonalLoop=1;jettySize=auto;html=1;exitX=0;exitY=0.5;exitDx=0;exitDy=0;endArrow=none;endFill=0;" parent="1" source="QhEV-e-kiflhuz-4DfNM-178" edge="1">
                    <mxGeometry relative="1" as="geometry">
                        <mxPoint x="2180" y="-519.8571428571429" as="targetPoint"/>
                    </mxGeometry>
                </mxCell>
                <mxCell id="QhEV-e-kiflhuz-4DfNM-178" value="&lt;font style=&quot;font-size: 8px;&quot;&gt;Technicians assignment&lt;/font&gt;" style="rounded=0;whiteSpace=wrap;html=1;fillColor=#e1d5e7;strokeColor=#9673a6;" parent="1" vertex="1">
                    <mxGeometry x="2201.9" y="-540" width="59.25" height="40" as="geometry"/>
                </mxCell>
                <mxCell id="QhEV-e-kiflhuz-4DfNM-246" style="edgeStyle=orthogonalEdgeStyle;rounded=0;orthogonalLoop=1;jettySize=auto;html=1;endArrow=none;endFill=0;" parent="1" source="QhEV-e-kiflhuz-4DfNM-179" edge="1">
                    <mxGeometry relative="1" as="geometry">
                        <mxPoint x="2180" y="-460" as="targetPoint"/>
                    </mxGeometry>
                </mxCell>
                <mxCell id="QhEV-e-kiflhuz-4DfNM-179" value="&lt;font style=&quot;font-size: 8px;&quot;&gt;Skills&lt;/font&gt;" style="rounded=0;whiteSpace=wrap;html=1;fillColor=#e1d5e7;strokeColor=#9673a6;" parent="1" vertex="1">
                    <mxGeometry x="2201.9" y="-480" width="59.25" height="40" as="geometry"/>
                </mxCell>
                <mxCell id="QhEV-e-kiflhuz-4DfNM-247" style="edgeStyle=orthogonalEdgeStyle;rounded=0;orthogonalLoop=1;jettySize=auto;html=1;exitX=0;exitY=0.5;exitDx=0;exitDy=0;endArrow=none;endFill=0;" parent="1" source="QhEV-e-kiflhuz-4DfNM-180" edge="1">
                    <mxGeometry relative="1" as="geometry">
                        <mxPoint x="2180" y="-399.8571428571429" as="targetPoint"/>
                    </mxGeometry>
                </mxCell>
                <mxCell id="QhEV-e-kiflhuz-4DfNM-180" value="&lt;font style=&quot;font-size: 8px;&quot;&gt;Location&lt;/font&gt;" style="rounded=0;whiteSpace=wrap;html=1;fillColor=#e1d5e7;strokeColor=#9673a6;" parent="1" vertex="1">
                    <mxGeometry x="2201.9" y="-420" width="59.25" height="40" as="geometry"/>
                </mxCell>
                <mxCell id="3" style="edgeStyle=none;curved=1;rounded=0;orthogonalLoop=1;jettySize=auto;html=1;exitX=0;exitY=0.5;exitDx=0;exitDy=0;endArrow=none;startSize=14;endSize=14;sourcePerimeterSpacing=8;targetPerimeterSpacing=8;endFill=0;" parent="1" source="QhEV-e-kiflhuz-4DfNM-181" edge="1">
                    <mxGeometry relative="1" as="geometry">
                        <mxPoint x="2180" y="-340.0769230769231" as="targetPoint"/>
                    </mxGeometry>
                </mxCell>
                <mxCell id="QhEV-e-kiflhuz-4DfNM-181" value="&lt;font style=&quot;font-size: 8px;&quot;&gt;Job urgency&lt;/font&gt;" style="rounded=0;whiteSpace=wrap;html=1;fillColor=#e1d5e7;strokeColor=#9673a6;" parent="1" vertex="1">
                    <mxGeometry x="2201.9" y="-360" width="59.25" height="40" as="geometry"/>
                </mxCell>
                <mxCell id="QhEV-e-kiflhuz-4DfNM-252" style="edgeStyle=orthogonalEdgeStyle;rounded=0;orthogonalLoop=1;jettySize=auto;html=1;exitX=0;exitY=0.5;exitDx=0;exitDy=0;endArrow=none;endFill=0;" parent="1" source="QhEV-e-kiflhuz-4DfNM-182" edge="1">
                    <mxGeometry relative="1" as="geometry">
                        <mxPoint x="2280" y="-519.7931034482758" as="targetPoint"/>
                    </mxGeometry>
                </mxCell>
                <mxCell id="QhEV-e-kiflhuz-4DfNM-182" value="&lt;font style=&quot;font-size: 8px;&quot;&gt;Job details&lt;/font&gt;" style="rounded=0;whiteSpace=wrap;html=1;fillColor=#e1d5e7;strokeColor=#9673a6;" parent="1" vertex="1">
                    <mxGeometry x="2301.9" y="-540" width="59.25" height="40" as="geometry"/>
                </mxCell>
                <mxCell id="QhEV-e-kiflhuz-4DfNM-251" style="edgeStyle=orthogonalEdgeStyle;rounded=0;orthogonalLoop=1;jettySize=auto;html=1;exitX=0;exitY=0.75;exitDx=0;exitDy=0;endArrow=none;endFill=0;" parent="1" source="QhEV-e-kiflhuz-4DfNM-183" edge="1">
                    <mxGeometry relative="1" as="geometry">
                        <mxPoint x="2280" y="-450.1379310344828" as="targetPoint"/>
                    </mxGeometry>
                </mxCell>
                <mxCell id="QhEV-e-kiflhuz-4DfNM-183" value="&lt;font style=&quot;font-size: 8px;&quot;&gt;Update status&lt;/font&gt;" style="rounded=0;whiteSpace=wrap;html=1;fillColor=#e1d5e7;strokeColor=#9673a6;" parent="1" vertex="1">
                    <mxGeometry x="2301.9" y="-480" width="59.25" height="40" as="geometry"/>
                </mxCell>
                <mxCell id="QhEV-e-kiflhuz-4DfNM-255" style="edgeStyle=orthogonalEdgeStyle;rounded=0;orthogonalLoop=1;jettySize=auto;html=1;exitX=0;exitY=0.5;exitDx=0;exitDy=0;endArrow=none;endFill=0;" parent="1" source="QhEV-e-kiflhuz-4DfNM-184" edge="1">
                    <mxGeometry relative="1" as="geometry">
                        <mxPoint x="2380" y="-519.7931034482758" as="targetPoint"/>
                    </mxGeometry>
                </mxCell>
                <mxCell id="QhEV-e-kiflhuz-4DfNM-184" value="&lt;font style=&quot;font-size: 8px;&quot;&gt;Real time system monitoring&lt;/font&gt;" style="rounded=0;whiteSpace=wrap;html=1;spacingBottom=4;fillColor=#e1d5e7;strokeColor=#9673a6;" parent="1" vertex="1">
                    <mxGeometry x="2401.9" y="-540" width="59.25" height="40" as="geometry"/>
                </mxCell>
                <mxCell id="QhEV-e-kiflhuz-4DfNM-254" style="edgeStyle=orthogonalEdgeStyle;rounded=0;orthogonalLoop=1;jettySize=auto;html=1;exitX=0;exitY=0.5;exitDx=0;exitDy=0;endArrow=none;endFill=0;" parent="1" source="QhEV-e-kiflhuz-4DfNM-185" edge="1">
                    <mxGeometry relative="1" as="geometry">
                        <mxPoint x="2380" y="-459.7931034482758" as="targetPoint"/>
                    </mxGeometry>
                </mxCell>
                <mxCell id="QhEV-e-kiflhuz-4DfNM-185" value="&lt;span style=&quot;font-size: 8px;&quot;&gt;Potential Issues&lt;/span&gt;" style="rounded=0;whiteSpace=wrap;html=1;fillColor=#e1d5e7;strokeColor=#9673a6;" parent="1" vertex="1">
                    <mxGeometry x="2401.9" y="-480" width="59.25" height="40" as="geometry"/>
                </mxCell>
                <mxCell id="QhEV-e-kiflhuz-4DfNM-212" style="edgeStyle=orthogonalEdgeStyle;rounded=0;orthogonalLoop=1;jettySize=auto;html=1;exitX=0.5;exitY=0;exitDx=0;exitDy=0;endArrow=none;endFill=0;" parent="1" source="QhEV-e-kiflhuz-4DfNM-186" edge="1">
                    <mxGeometry relative="1" as="geometry">
                        <mxPoint x="2540.322413793104" y="-640.01" as="targetPoint"/>
                    </mxGeometry>
                </mxCell>
                <mxCell id="QhEV-e-kiflhuz-4DfNM-256" style="edgeStyle=orthogonalEdgeStyle;rounded=0;orthogonalLoop=1;jettySize=auto;html=1;exitX=0;exitY=1;exitDx=0;exitDy=0;endArrow=none;endFill=0;" parent="1" source="QhEV-e-kiflhuz-4DfNM-186" edge="1">
                    <mxGeometry relative="1" as="geometry">
                        <mxPoint x="2500.322413793104" y="-520.01" as="targetPoint"/>
                    </mxGeometry>
                </mxCell>
                <mxCell id="QhEV-e-kiflhuz-4DfNM-186" value="&lt;font style=&quot;font-size: 10px;&quot;&gt;Automated Feedback Mechanisms&lt;/font&gt;" style="rounded=0;whiteSpace=wrap;html=1;fillColor=#ffe6cc;strokeColor=#d79b00;" parent="1" vertex="1">
                    <mxGeometry x="2499.99730540794" y="-600.0014814814815" width="81.15035948733978" height="41.48148148148148" as="geometry"/>
                </mxCell>
                <mxCell id="QhEV-e-kiflhuz-4DfNM-213" style="edgeStyle=orthogonalEdgeStyle;rounded=0;orthogonalLoop=1;jettySize=auto;html=1;exitX=0.5;exitY=0;exitDx=0;exitDy=0;endArrow=none;endFill=0;" parent="1" source="QhEV-e-kiflhuz-4DfNM-187" edge="1">
                    <mxGeometry relative="1" as="geometry">
                        <mxPoint x="2701.7017241379313" y="-640.01" as="targetPoint"/>
                    </mxGeometry>
                </mxCell>
                <mxCell id="QhEV-e-kiflhuz-4DfNM-258" style="edgeStyle=orthogonalEdgeStyle;rounded=0;orthogonalLoop=1;jettySize=auto;html=1;exitX=0;exitY=1;exitDx=0;exitDy=0;endArrow=none;endFill=0;" parent="1" source="QhEV-e-kiflhuz-4DfNM-187" edge="1">
                    <mxGeometry relative="1" as="geometry">
                        <mxPoint x="2661.0120689655173" y="-520.01" as="targetPoint"/>
                    </mxGeometry>
                </mxCell>
                <mxCell id="QhEV-e-kiflhuz-4DfNM-187" value="&lt;font style=&quot;font-size: 10px;&quot;&gt;AI-Driven Sentiment Analysis&lt;/font&gt;" style="rounded=0;whiteSpace=wrap;html=1;fillColor=#ffe6cc;strokeColor=#d79b00;" parent="1" vertex="1">
                    <mxGeometry x="2661.14730540794" y="-600.0114814814815" width="81.15035948733978" height="41.48148148148148" as="geometry"/>
                </mxCell>
                <mxCell id="QhEV-e-kiflhuz-4DfNM-257" style="edgeStyle=orthogonalEdgeStyle;rounded=0;orthogonalLoop=1;jettySize=auto;html=1;exitX=0;exitY=0.5;exitDx=0;exitDy=0;endArrow=none;endFill=0;" parent="1" source="QhEV-e-kiflhuz-4DfNM-189" edge="1">
                    <mxGeometry relative="1" as="geometry">
                        <mxPoint x="2501.15" y="-519.8031034482758" as="targetPoint"/>
                    </mxGeometry>
                </mxCell>
                <mxCell id="QhEV-e-kiflhuz-4DfNM-189" value="&lt;font style=&quot;font-size: 8px;&quot;&gt;Satisfaction surveys&lt;/font&gt;" style="rounded=0;whiteSpace=wrap;html=1;spacingBottom=4;fillColor=#e1d5e7;strokeColor=#9673a6;" parent="1" vertex="1">
                    <mxGeometry x="2521.9" y="-540.01" width="59.25" height="40" as="geometry"/>
                </mxCell>
                <mxCell id="QhEV-e-kiflhuz-4DfNM-259" style="edgeStyle=orthogonalEdgeStyle;rounded=0;orthogonalLoop=1;jettySize=auto;html=1;exitX=0;exitY=0.5;exitDx=0;exitDy=0;endArrow=none;endFill=0;" parent="1" source="QhEV-e-kiflhuz-4DfNM-190" edge="1">
                    <mxGeometry relative="1" as="geometry">
                        <mxPoint x="2661.15" y="-519.8031034482758" as="targetPoint"/>
                    </mxGeometry>
                </mxCell>
                <mxCell id="QhEV-e-kiflhuz-4DfNM-190" value="&lt;font style=&quot;font-size: 8px;&quot;&gt;Client interactions&lt;/font&gt;" style="rounded=0;whiteSpace=wrap;html=1;spacingBottom=4;fillColor=#e1d5e7;strokeColor=#9673a6;" parent="1" vertex="1">
                    <mxGeometry x="2683.05" y="-540.01" width="59.25" height="40" as="geometry"/>
                </mxCell>
                <mxCell id="QhEV-e-kiflhuz-4DfNM-192" value="" style="endArrow=none;html=1;rounded=0;entryX=0.5;entryY=1;entryDx=0;entryDy=0;" parent="1" target="QhEV-e-kiflhuz-4DfNM-2" edge="1">
                    <mxGeometry width="50" height="50" relative="1" as="geometry">
                        <mxPoint x="1443.3600000000001" y="-629.26" as="sourcePoint"/>
                        <mxPoint x="1453.3600000000001" y="-649.26" as="targetPoint"/>
                    </mxGeometry>
                </mxCell>
                <mxCell id="QhEV-e-kiflhuz-4DfNM-193" value="" style="endArrow=none;html=1;rounded=0;" parent="1" edge="1">
                    <mxGeometry width="50" height="50" relative="1" as="geometry">
                        <mxPoint x="1343.3600000000001" y="-629.26" as="sourcePoint"/>
                        <mxPoint x="1543.3600000000001" y="-629.26" as="targetPoint"/>
                    </mxGeometry>
                </mxCell>
                <mxCell id="QhEV-e-kiflhuz-4DfNM-197" value="" style="endArrow=none;html=1;rounded=0;entryX=0.5;entryY=1;entryDx=0;entryDy=0;" parent="1" target="QhEV-e-kiflhuz-4DfNM-3" edge="1">
                    <mxGeometry width="50" height="50" relative="1" as="geometry">
                        <mxPoint x="1744.54" y="-637.76" as="sourcePoint"/>
                        <mxPoint x="1394.54" y="-647.76" as="targetPoint"/>
                    </mxGeometry>
                </mxCell>
                <mxCell id="QhEV-e-kiflhuz-4DfNM-198" value="" style="endArrow=none;html=1;rounded=0;" parent="1" edge="1">
                    <mxGeometry width="50" height="50" relative="1" as="geometry">
                        <mxPoint x="1664.54" y="-637.76" as="sourcePoint"/>
                        <mxPoint x="1824.54" y="-637.76" as="targetPoint"/>
                    </mxGeometry>
                </mxCell>
                <mxCell id="QhEV-e-kiflhuz-4DfNM-201" value="" style="endArrow=none;html=1;rounded=0;entryX=0.5;entryY=1;entryDx=0;entryDy=0;" parent="1" edge="1">
                    <mxGeometry width="50" height="50" relative="1" as="geometry">
                        <mxPoint x="2029.8000000000002" y="-640" as="sourcePoint"/>
                        <mxPoint x="2029.8000000000002" y="-660" as="targetPoint"/>
                    </mxGeometry>
                </mxCell>
                <mxCell id="QhEV-e-kiflhuz-4DfNM-202" value="" style="endArrow=none;html=1;rounded=0;" parent="1" edge="1">
                    <mxGeometry width="50" height="50" relative="1" as="geometry">
                        <mxPoint x="1950" y="-640" as="sourcePoint"/>
                        <mxPoint x="2110" y="-640" as="targetPoint"/>
                    </mxGeometry>
                </mxCell>
                <mxCell id="QhEV-e-kiflhuz-4DfNM-205" value="" style="endArrow=none;html=1;rounded=0;entryX=0.5;entryY=1;entryDx=0;entryDy=0;" parent="1" edge="1">
                    <mxGeometry width="50" height="50" relative="1" as="geometry">
                        <mxPoint x="2320.37" y="-640" as="sourcePoint"/>
                        <mxPoint x="2320.37" y="-660" as="targetPoint"/>
                    </mxGeometry>
                </mxCell>
                <mxCell id="QhEV-e-kiflhuz-4DfNM-206" value="" style="endArrow=none;html=1;rounded=0;" parent="1" edge="1">
                    <mxGeometry width="50" height="50" relative="1" as="geometry">
                        <mxPoint x="2220" y="-640" as="sourcePoint"/>
                        <mxPoint x="2420" y="-640" as="targetPoint"/>
                    </mxGeometry>
                </mxCell>
                <mxCell id="QhEV-e-kiflhuz-4DfNM-210" value="" style="endArrow=none;html=1;rounded=0;" parent="1" edge="1">
                    <mxGeometry width="50" height="50" relative="1" as="geometry">
                        <mxPoint x="2541.15" y="-640.01" as="sourcePoint"/>
                        <mxPoint x="2701.15" y="-640.01" as="targetPoint"/>
                    </mxGeometry>
                </mxCell>
                <mxCell id="QhEV-e-kiflhuz-4DfNM-211" value="" style="endArrow=none;html=1;rounded=0;entryX=0.5;entryY=1;entryDx=0;entryDy=0;" parent="1" edge="1">
                    <mxGeometry width="50" height="50" relative="1" as="geometry">
                        <mxPoint x="2620.9500000000003" y="-640.01" as="sourcePoint"/>
                        <mxPoint x="2620.9500000000003" y="-660.01" as="targetPoint"/>
                    </mxGeometry>
                </mxCell>
                <mxCell id="QhEV-e-kiflhuz-4DfNM-214" value="" style="endArrow=none;html=1;rounded=0;entryX=0;entryY=1;entryDx=0;entryDy=0;" parent="1" target="QhEV-e-kiflhuz-4DfNM-24" edge="1">
                    <mxGeometry width="50" height="50" relative="1" as="geometry">
                        <mxPoint x="1303.3600000000001" y="-339.26" as="sourcePoint"/>
                        <mxPoint x="1433.3600000000001" y="-459.26" as="targetPoint"/>
                    </mxGeometry>
                </mxCell>
                <mxCell id="QhEV-e-kiflhuz-4DfNM-220" value="" style="endArrow=none;html=1;rounded=0;entryX=0;entryY=1;entryDx=0;entryDy=0;" parent="1" edge="1">
                    <mxGeometry width="50" height="50" relative="1" as="geometry">
                        <mxPoint x="1403.3600000000001" y="-459.26" as="sourcePoint"/>
                        <mxPoint x="1403.3600000000001" y="-557.76" as="targetPoint"/>
                    </mxGeometry>
                </mxCell>
                <mxCell id="QhEV-e-kiflhuz-4DfNM-224" value="" style="endArrow=none;html=1;rounded=0;entryX=0;entryY=1;entryDx=0;entryDy=0;" parent="1" edge="1">
                    <mxGeometry width="50" height="50" relative="1" as="geometry">
                        <mxPoint x="1503.3600000000001" y="-459.26" as="sourcePoint"/>
                        <mxPoint x="1502.5900000000001" y="-557.78" as="targetPoint"/>
                    </mxGeometry>
                </mxCell>
                <mxCell id="16" style="edgeStyle=orthogonalEdgeStyle;rounded=0;orthogonalLoop=1;jettySize=auto;html=1;exitX=0.5;exitY=1;exitDx=0;exitDy=0;entryX=0.5;entryY=0;entryDx=0;entryDy=0;endArrow=none;endFill=0;startSize=14;endSize=14;sourcePerimeterSpacing=8;targetPerimeterSpacing=8;" edge="1" parent="1" source="8" target="13">
                    <mxGeometry relative="1" as="geometry"/>
                </mxCell>
                <mxCell id="17" style="edgeStyle=orthogonalEdgeStyle;rounded=0;orthogonalLoop=1;jettySize=auto;html=1;exitX=0.5;exitY=1;exitDx=0;exitDy=0;entryX=0.5;entryY=0;entryDx=0;entryDy=0;endArrow=none;endFill=0;startSize=14;endSize=14;sourcePerimeterSpacing=8;targetPerimeterSpacing=8;" edge="1" parent="1" source="8" target="12">
                    <mxGeometry relative="1" as="geometry"/>
                </mxCell>
                <mxCell id="18" style="edgeStyle=orthogonalEdgeStyle;rounded=0;orthogonalLoop=1;jettySize=auto;html=1;exitX=0.5;exitY=1;exitDx=0;exitDy=0;entryX=0.5;entryY=0;entryDx=0;entryDy=0;endArrow=none;endFill=0;startSize=14;endSize=14;sourcePerimeterSpacing=8;targetPerimeterSpacing=8;" edge="1" parent="1" source="8" target="11">
                    <mxGeometry relative="1" as="geometry"/>
                </mxCell>
                <mxCell id="8" value="Risk Register Creation" style="rounded=0;whiteSpace=wrap;html=1;fillColor=#dae8fc;strokeColor=#6c8ebf;" vertex="1" parent="1">
                    <mxGeometry x="480.78" y="-740" width="80" height="80" as="geometry"/>
                </mxCell>
                <mxCell id="9" value="Gantt Chart Creation" style="rounded=0;whiteSpace=wrap;html=1;fillColor=#dae8fc;strokeColor=#6c8ebf;" vertex="1" parent="1">
                    <mxGeometry x="280" y="-740" width="80" height="80" as="geometry"/>
                </mxCell>
                <mxCell id="11" value="&lt;font style=&quot;font-size: 10px;&quot;&gt;Risk Identification&lt;/font&gt;" style="rounded=0;whiteSpace=wrap;html=1;fillColor=#ffe6cc;strokeColor=#d79b00;spacingTop=0;" vertex="1" parent="1">
                    <mxGeometry x="380.40999999999985" y="-600" width="80" height="41.48" as="geometry"/>
                </mxCell>
                <mxCell id="23" style="edgeStyle=orthogonalEdgeStyle;rounded=0;orthogonalLoop=1;jettySize=auto;html=1;exitX=0;exitY=1;exitDx=0;exitDy=0;entryX=0;entryY=0.5;entryDx=0;entryDy=0;endArrow=none;endFill=0;startSize=14;endSize=14;sourcePerimeterSpacing=8;targetPerimeterSpacing=8;" edge="1" parent="1" source="12" target="19">
                    <mxGeometry relative="1" as="geometry">
                        <Array as="points">
                            <mxPoint x="480" y="-529.25"/>
                        </Array>
                    </mxGeometry>
                </mxCell>
                <mxCell id="24" style="edgeStyle=orthogonalEdgeStyle;rounded=0;orthogonalLoop=1;jettySize=auto;html=1;exitX=0;exitY=1;exitDx=0;exitDy=0;entryX=0;entryY=0.5;entryDx=0;entryDy=0;endArrow=none;endFill=0;startSize=14;endSize=14;sourcePerimeterSpacing=8;targetPerimeterSpacing=8;" edge="1" parent="1" source="12" target="20">
                    <mxGeometry relative="1" as="geometry"/>
                </mxCell>
                <mxCell id="12" value="&lt;font style=&quot;font-size: 10px;&quot;&gt;Risk Analysis&amp;nbsp;&lt;/font&gt;" style="rounded=0;whiteSpace=wrap;html=1;fillColor=#ffe6cc;strokeColor=#d79b00;" vertex="1" parent="1">
                    <mxGeometry x="480.4073054079398" y="-599.9933333333333" width="81.15035948733978" height="41.48148148148148" as="geometry"/>
                </mxCell>
                <mxCell id="13" value="&lt;font style=&quot;font-size: 10px;&quot;&gt;Mitigation Strategy Creation&lt;/font&gt;" style="rounded=0;whiteSpace=wrap;html=1;fillColor=#ffe6cc;strokeColor=#d79b00;" vertex="1" parent="1">
                    <mxGeometry x="580.0073054079398" y="-599.9914814814815" width="81.15035948733978" height="41.48148148148148" as="geometry"/>
                </mxCell>
                <mxCell id="19" value="&lt;font style=&quot;font-size: 8px;&quot;&gt;Risk Occurrence Quantification&lt;/font&gt;" style="rounded=0;whiteSpace=wrap;html=1;fillColor=#e1d5e7;strokeColor=#9673a6;" vertex="1" parent="1">
                    <mxGeometry x="501.55999999999995" y="-537.76" width="60" height="40" as="geometry"/>
                </mxCell>
                <mxCell id="20" value="&lt;font style=&quot;font-size: 8px;&quot;&gt;Risk Impact Quantification&lt;/font&gt;" style="rounded=0;whiteSpace=wrap;html=1;fillColor=#e1d5e7;strokeColor=#9673a6;" vertex="1" parent="1">
                    <mxGeometry x="501.55999999999995" y="-477.76" width="60" height="40" as="geometry"/>
                </mxCell>
                <mxCell id="27" value="&lt;font style=&quot;font-size: 10px;&quot;&gt;Overall Theme Selection&lt;/font&gt;" style="rounded=0;whiteSpace=wrap;html=1;fillColor=#ffe6cc;strokeColor=#d79b00;spacingTop=0;" vertex="1" parent="1">
                    <mxGeometry x="790" y="-599.98" width="80" height="41.48" as="geometry"/>
                </mxCell>
                <mxCell id="28" value="&lt;font style=&quot;font-size: 10px;&quot;&gt;Component Composition&lt;/font&gt;" style="rounded=0;whiteSpace=wrap;html=1;fillColor=#ffe6cc;strokeColor=#d79b00;" vertex="1" parent="1">
                    <mxGeometry x="889.99730540794" y="-599.9733333333334" width="81.15035948733978" height="41.48148148148148" as="geometry"/>
                </mxCell>
                <mxCell id="33" style="edgeStyle=orthogonalEdgeStyle;rounded=0;orthogonalLoop=1;jettySize=auto;html=1;exitX=0;exitY=1;exitDx=0;exitDy=0;entryX=0;entryY=0.5;entryDx=0;entryDy=0;endArrow=none;endFill=0;startSize=14;endSize=14;sourcePerimeterSpacing=8;targetPerimeterSpacing=8;" edge="1" parent="1" source="29" target="31">
                    <mxGeometry relative="1" as="geometry"/>
                </mxCell>
                <mxCell id="34" style="edgeStyle=orthogonalEdgeStyle;rounded=0;orthogonalLoop=1;jettySize=auto;html=1;exitX=0;exitY=1;exitDx=0;exitDy=0;entryX=0;entryY=0.5;entryDx=0;entryDy=0;endArrow=none;endFill=0;startSize=14;endSize=14;sourcePerimeterSpacing=8;targetPerimeterSpacing=8;" edge="1" parent="1" source="29" target="32">
                    <mxGeometry relative="1" as="geometry"/>
                </mxCell>
                <mxCell id="29" value="&lt;font style=&quot;font-size: 10px;&quot;&gt;UX Design&lt;/font&gt;" style="rounded=0;whiteSpace=wrap;html=1;fillColor=#ffe6cc;strokeColor=#d79b00;spacingTop=0;" vertex="1" parent="1">
                    <mxGeometry x="1030" y="-599.97" width="80" height="41.48" as="geometry"/>
                </mxCell>
                <mxCell id="30" value="&lt;font style=&quot;font-size: 10px;&quot;&gt;Component Selection&lt;/font&gt;" style="rounded=0;whiteSpace=wrap;html=1;fillColor=#ffe6cc;strokeColor=#d79b00;" vertex="1" parent="1">
                    <mxGeometry x="1129.99730540794" y="-599.9633333333334" width="81.15035948733978" height="41.48148148148148" as="geometry"/>
                </mxCell>
                <mxCell id="31" value="&lt;font style=&quot;font-size: 8px;&quot;&gt;Intuitive Usage&lt;/font&gt;" style="rounded=0;whiteSpace=wrap;html=1;fillColor=#e1d5e7;strokeColor=#9673a6;" vertex="1" parent="1">
                    <mxGeometry x="1050" y="-538.5" width="60" height="40" as="geometry"/>
                </mxCell>
                <mxCell id="32" value="&lt;font style=&quot;font-size: 8px;&quot;&gt;Clear User Messaging&lt;/font&gt;" style="rounded=0;whiteSpace=wrap;html=1;fillColor=#e1d5e7;strokeColor=#9673a6;" vertex="1" parent="1">
                    <mxGeometry x="1050" y="-478.5" width="60" height="40" as="geometry"/>
                </mxCell>
            </root>
        </mxGraphModel>
    </diagram>
</mxfile>